<?xml version="1.0" encoding="UTF-8"?>
<svg xmlns="http://www.w3.org/2000/svg" xmlns:xlink="http://www.w3.org/1999/xlink" width="180px" height="180px" viewBox="0 0 180 179" version="1.1">
<defs>
<clipPath id="clip1">
  <path d="M 0.046875 0 L 179.878906 0 L 179.878906 178.921875 L 0.046875 178.921875 Z M 0.046875 0 "/>
</clipPath>
<clipPath id="clip2">
  <path d="M 34.058594 93.734375 L 145.863281 93.734375 L 145.863281 135.621094 L 34.058594 135.621094 Z M 34.058594 93.734375 "/>
</clipPath>
<clipPath id="clip3">
  <path d="M 55.414062 43.300781 L 124.511719 43.300781 L 124.511719 83.84375 L 55.414062 83.84375 Z M 55.414062 43.300781 "/>
</clipPath>
</defs>
<g id="surface1">
<g clip-path="url(#clip1)" clip-rule="nonzero">
<path style="fill-rule:nonzero;fill:rgb(100%,100%,100%);fill-opacity:1;stroke-width:1;stroke-linecap:butt;stroke-linejoin:miter;stroke:rgb(100%,100%,100%);stroke-opacity:1;stroke-miterlimit:4;" d="M 0.00361172 171.425148 C 0.00361172 76.752837 76.748039 0.000000000000003098 171.425564 0.000000000000003098 C 266.103089 0.000000000000003098 342.854964 76.752837 342.854964 171.425148 C 342.854964 266.104945 266.103089 342.850297 171.425564 342.850297 C 76.748039 342.850297 0.00361172 266.104945 0.00361172 171.425148 Z M 171.425564 335.612146 C 262.103889 335.612146 335.616188 262.100384 335.616188 171.425148 C 335.616188 80.749913 262.103889 7.23815 171.425564 7.23815 C 80.747239 7.23815 7.242387 80.749913 7.242387 171.425148 C 7.242387 262.100384 80.747239 335.612146 171.425564 335.612146 Z M 171.425564 335.612146 " transform="matrix(0.524519,0,0,0.521866,0.0449806,-0.000000000000001617)"/>
</g>
<path style=" stroke:none;fill-rule:nonzero;fill:rgb(100%,100%,100%);fill-opacity:1;" d="M 176.28125 89.460938 C 176.28125 42.03125 137.632812 3.578125 89.960938 3.578125 C 42.289062 3.578125 3.640625 42.03125 3.640625 89.460938 C 3.640625 136.894531 42.289062 175.34375 89.960938 175.34375 C 137.632812 175.34375 176.28125 136.894531 176.28125 89.460938 Z M 176.28125 89.460938 "/>
<g clip-path="url(#clip2)" clip-rule="nonzero">
<path style=" stroke:none;fill-rule:nonzero;fill:rgb(0%,0%,0%);fill-opacity:1;" d="M 34.359375 125.113281 L 34.082031 119.359375 C 34.082031 119.351562 34.078125 119.339844 34.074219 119.335938 C 34.066406 119.324219 34.066406 119.3125 34.066406 119.300781 C 34.066406 119.117188 34.164062 119.023438 34.359375 119.023438 C 34.488281 119.023438 34.601562 119.074219 34.699219 119.171875 C 35.265625 119.707031 35.910156 120.144531 36.632812 120.484375 C 37.359375 120.816406 38.148438 120.984375 39 120.984375 C 39.222656 120.984375 39.484375 120.960938 39.777344 120.914062 C 40.074219 120.863281 40.355469 120.78125 40.628906 120.671875 C 40.894531 120.558594 41.113281 120.40625 41.289062 120.214844 C 41.464844 120.023438 41.554688 119.789062 41.554688 119.507812 C 41.554688 119.203125 41.476562 118.917969 41.320312 118.652344 C 41.167969 118.394531 40.960938 118.183594 40.707031 118.015625 C 40.566406 117.917969 40.320312 117.746094 39.96875 117.496094 C 39.617188 117.25 39.238281 116.988281 38.832031 116.710938 C 38.433594 116.429688 38.054688 116.164062 37.6875 115.910156 C 37.332031 115.65625 37.082031 115.472656 36.945312 115.359375 C 36.308594 114.882812 35.800781 114.398438 35.425781 113.910156 C 35.054688 113.414062 34.769531 112.90625 34.566406 112.382812 C 34.371094 111.851562 34.246094 111.300781 34.1875 110.726562 C 34.132812 110.152344 34.109375 109.542969 34.109375 108.898438 C 34.109375 107.914062 34.367188 106.988281 34.890625 106.121094 C 35.410156 105.246094 36.097656 104.476562 36.953125 103.816406 C 37.808594 103.160156 38.777344 102.640625 39.867188 102.253906 C 40.953125 101.863281 42.058594 101.667969 43.1875 101.667969 C 44.117188 101.667969 45.03125 101.808594 45.933594 102.089844 C 46.84375 102.375 47.683594 102.851562 48.457031 103.523438 C 48.527344 104.410156 48.574219 105.28125 48.605469 106.136719 C 48.632812 106.992188 48.675781 107.890625 48.734375 108.828125 C 48.734375 109.011719 48.691406 109.136719 48.605469 109.199219 C 48.519531 109.261719 48.421875 109.292969 48.308594 109.292969 C 48.210938 109.292969 48.128906 109.261719 48.058594 109.191406 C 47.730469 108.878906 47.398438 108.574219 47.0625 108.277344 C 46.71875 107.972656 46.363281 107.703125 45.988281 107.472656 C 45.617188 107.246094 45.222656 107.054688 44.796875 106.90625 C 44.371094 106.753906 43.917969 106.679688 43.4375 106.679688 C 43.144531 106.679688 42.847656 106.707031 42.554688 106.757812 C 42.253906 106.808594 41.984375 106.902344 41.746094 107.035156 C 41.503906 107.167969 41.308594 107.34375 41.167969 107.570312 C 41.015625 107.792969 40.941406 108.082031 40.941406 108.433594 C 40.941406 108.839844 40.988281 109.191406 41.089844 109.484375 C 41.1875 109.777344 41.421875 110.066406 41.789062 110.347656 L 45.726562 113.003906 C 46.441406 113.492188 47.023438 113.972656 47.46875 114.445312 C 47.914062 114.914062 48.265625 115.382812 48.519531 115.839844 C 48.773438 116.308594 48.945312 116.765625 49.039062 117.222656 C 49.132812 117.683594 49.175781 118.136719 49.175781 118.585938 C 49.175781 119.851562 48.886719 120.960938 48.300781 121.921875 C 47.710938 122.882812 46.953125 123.683594 46.019531 124.320312 C 45.089844 124.960938 44.035156 125.445312 42.855469 125.777344 C 41.675781 126.105469 40.496094 126.269531 39.3125 126.269531 C 38.410156 126.269531 37.539062 126.175781 36.699219 125.984375 C 35.855469 125.796875 35.078125 125.503906 34.359375 125.113281 Z M 52.585938 125.113281 L 52.308594 119.359375 C 52.308594 119.351562 52.304688 119.339844 52.296875 119.335938 C 52.292969 119.324219 52.289062 119.3125 52.289062 119.300781 C 52.289062 119.117188 52.386719 119.023438 52.585938 119.023438 C 52.710938 119.023438 52.824219 119.074219 52.921875 119.171875 C 53.484375 119.707031 54.128906 120.144531 54.855469 120.484375 C 55.585938 120.816406 56.371094 120.984375 57.214844 120.984375 C 57.441406 120.984375 57.703125 120.960938 58.003906 120.914062 C 58.296875 120.863281 58.578125 120.78125 58.84375 120.671875 C 59.117188 120.558594 59.339844 120.40625 59.511719 120.214844 C 59.691406 120.023438 59.78125 119.789062 59.78125 119.507812 C 59.78125 119.203125 59.703125 118.917969 59.546875 118.652344 C 59.390625 118.394531 59.183594 118.183594 58.929688 118.015625 C 58.792969 117.917969 58.546875 117.746094 58.195312 117.496094 C 57.839844 117.25 57.460938 116.988281 57.058594 116.710938 C 56.652344 116.429688 56.273438 116.164062 55.914062 115.910156 C 55.554688 115.65625 55.308594 115.472656 55.167969 115.359375 C 54.53125 114.882812 54.027344 114.398438 53.652344 113.910156 C 53.273438 113.414062 52.988281 112.90625 52.792969 112.382812 C 52.597656 111.851562 52.46875 111.300781 52.410156 110.726562 C 52.351562 110.152344 52.324219 109.542969 52.324219 108.898438 C 52.324219 107.914062 52.585938 106.988281 53.113281 106.121094 C 53.632812 105.246094 54.320312 104.476562 55.175781 103.816406 C 56.027344 103.160156 56.996094 102.640625 58.082031 102.253906 C 59.167969 101.863281 60.277344 101.667969 61.410156 101.667969 C 62.339844 101.667969 63.257812 101.808594 64.160156 102.089844 C 65.0625 102.375 65.902344 102.851562 66.683594 103.523438 C 66.75 104.410156 66.800781 105.28125 66.828125 106.136719 C 66.859375 106.992188 66.898438 107.890625 66.949219 108.828125 C 66.949219 109.011719 66.910156 109.136719 66.828125 109.199219 C 66.742188 109.261719 66.644531 109.292969 66.535156 109.292969 C 66.4375 109.292969 66.351562 109.261719 66.273438 109.191406 C 65.949219 108.878906 65.621094 108.574219 65.285156 108.277344 C 64.945312 107.972656 64.585938 107.703125 64.210938 107.472656 C 63.839844 107.246094 63.441406 107.054688 63.015625 106.90625 C 62.59375 106.753906 62.140625 106.679688 61.660156 106.679688 C 61.367188 106.679688 61.074219 106.707031 60.777344 106.757812 C 60.476562 106.808594 60.207031 106.902344 59.972656 107.035156 C 59.730469 107.167969 59.535156 107.34375 59.390625 107.570312 C 59.238281 107.792969 59.164062 108.082031 59.164062 108.433594 C 59.164062 108.839844 59.214844 109.191406 59.3125 109.484375 C 59.410156 109.777344 59.644531 110.066406 60.015625 110.347656 L 63.949219 113.003906 C 64.667969 113.492188 65.25 113.972656 65.695312 114.445312 C 66.136719 114.914062 66.488281 115.382812 66.742188 115.839844 C 66.996094 116.308594 67.171875 116.765625 67.261719 117.222656 C 67.355469 117.683594 67.402344 118.136719 67.402344 118.585938 C 67.402344 119.851562 67.105469 120.960938 66.515625 121.921875 C 65.933594 122.882812 65.175781 123.683594 64.246094 124.320312 C 63.316406 124.960938 62.261719 125.445312 61.082031 125.777344 C 59.902344 126.105469 58.71875 126.269531 57.535156 126.269531 C 56.632812 126.269531 55.761719 126.175781 54.917969 125.984375 C 54.078125 125.796875 53.300781 125.503906 52.585938 125.113281 Z M 94.789062 101.882812 L 92.796875 122.5625 C 92.753906 123.027344 92.699219 123.347656 92.632812 123.519531 C 92.554688 123.695312 92.398438 123.816406 92.164062 123.871094 C 90.960938 124.207031 89.710938 124.546875 88.410156 124.890625 C 87.101562 125.234375 85.835938 125.691406 84.601562 126.253906 C 84.5625 126.265625 84.5 126.269531 84.414062 126.269531 C 84.300781 126.269531 84.234375 126.242188 84.210938 126.183594 C 84.191406 126.125 84.179688 126.0625 84.179688 125.996094 C 84.179688 125.964844 84.183594 125.917969 84.195312 125.847656 C 84.203125 125.777344 84.21875 125.648438 84.246094 125.460938 C 84.277344 125.269531 84.3125 125.003906 84.359375 124.667969 C 84.414062 124.332031 84.480469 123.882812 84.558594 123.320312 C 82.980469 124.34375 81.582031 125.09375 80.363281 125.5625 C 79.144531 126.035156 78.058594 126.269531 77.113281 126.269531 C 74.753906 126.269531 73.039062 125.703125 71.960938 124.570312 C 70.882812 123.445312 70.339844 121.757812 70.339844 119.507812 C 70.339844 119.097656 70.347656 118.683594 70.359375 118.257812 C 70.375 117.832031 70.417969 117.390625 70.488281 116.9375 C 70.644531 115.28125 70.777344 113.859375 70.886719 112.675781 C 71.003906 111.492188 71.09375 110.484375 71.164062 109.65625 C 71.234375 108.828125 71.292969 108.148438 71.347656 107.621094 C 71.394531 107.097656 71.433594 106.65625 71.46875 106.300781 C 71.507812 105.949219 71.539062 105.660156 71.554688 105.429688 C 71.578125 105.199219 71.605469 104.972656 71.632812 104.75 C 71.683594 104.300781 71.738281 103.984375 71.789062 103.800781 C 71.839844 103.617188 72 103.496094 72.265625 103.4375 C 72.929688 103.3125 73.558594 103.195312 74.15625 103.09375 C 74.757812 102.988281 75.351562 102.875 75.941406 102.753906 C 76.523438 102.636719 77.121094 102.503906 77.726562 102.367188 C 78.335938 102.230469 78.976562 102.058594 79.652344 101.859375 C 79.679688 101.859375 79.710938 101.855469 79.738281 101.851562 C 79.769531 101.84375 79.796875 101.839844 79.824219 101.839844 C 79.992188 101.839844 80.078125 101.894531 80.078125 102.003906 L 80.078125 102.046875 C 80.019531 102.527344 79.96875 102.976562 79.929688 103.402344 C 79.882812 103.824219 79.839844 104.253906 79.800781 104.695312 C 79.757812 105.140625 79.714844 105.613281 79.660156 106.121094 C 79.613281 106.621094 79.554688 107.203125 79.480469 107.871094 C 79.410156 108.539062 79.324219 109.308594 79.226562 110.183594 C 79.128906 111.050781 79.011719 112.058594 78.871094 113.210938 C 78.785156 114.054688 78.699219 114.894531 78.613281 115.730469 C 78.53125 116.5625 78.492188 117.339844 78.492188 118.058594 C 78.492188 118.449219 78.519531 118.8125 78.578125 119.144531 C 78.628906 119.472656 78.730469 119.753906 78.878906 119.980469 C 79.03125 120.210938 79.226562 120.390625 79.460938 120.515625 C 79.703125 120.644531 80.011719 120.707031 80.390625 120.707031 C 80.691406 120.707031 81.09375 120.640625 81.601562 120.507812 C 82.113281 120.375 82.617188 120.144531 83.121094 119.816406 C 83.628906 119.484375 84.078125 119.046875 84.464844 118.507812 C 84.855469 117.964844 85.078125 117.28125 85.132812 116.453125 C 85.230469 115.066406 85.320312 113.90625 85.402344 112.96875 C 85.476562 112.039062 85.542969 111.253906 85.601562 110.613281 C 85.65625 109.976562 85.707031 109.4375 85.746094 109 C 85.789062 108.5625 85.828125 108.148438 85.867188 107.75 C 85.902344 107.347656 85.933594 106.917969 85.964844 106.464844 C 85.988281 106.003906 86.011719 105.433594 86.042969 104.75 C 86.089844 104.28125 86.144531 103.964844 86.207031 103.789062 C 86.269531 103.613281 86.429688 103.496094 86.683594 103.4375 C 87.96875 103.191406 89.277344 102.933594 90.621094 102.667969 C 91.960938 102.410156 93.273438 102.078125 94.554688 101.667969 C 94.664062 101.667969 94.734375 101.6875 94.753906 101.71875 C 94.777344 101.761719 94.789062 101.816406 94.789062 101.882812 Z M 107.042969 110.15625 L 106.980469 110.476562 C 106.894531 111.820312 106.820312 112.917969 106.753906 113.761719 C 106.691406 114.601562 106.640625 115.285156 106.597656 115.816406 C 106.550781 116.339844 106.515625 116.753906 106.484375 117.058594 C 106.464844 117.355469 106.441406 117.640625 106.425781 117.910156 C 106.75 118.75 107.230469 119.4375 107.863281 119.964844 C 108.5 120.488281 109.261719 120.75 110.152344 120.75 C 110.929688 120.75 111.605469 120.507812 112.191406 120.023438 C 112.78125 119.542969 113.269531 118.914062 113.65625 118.144531 C 114.042969 117.367188 114.335938 116.503906 114.53125 115.546875 C 114.726562 114.59375 114.828125 113.648438 114.828125 112.710938 C 114.828125 111.933594 114.761719 111.21875 114.628906 110.5625 C 114.496094 109.902344 114.296875 109.328125 114.027344 108.847656 C 113.757812 108.355469 113.421875 107.976562 113.023438 107.707031 C 112.617188 107.429688 112.140625 107.292969 111.59375 107.292969 C 111.140625 107.292969 110.695312 107.382812 110.25 107.558594 C 109.804688 107.734375 109.375 107.957031 108.964844 108.234375 C 108.554688 108.503906 108.183594 108.8125 107.855469 109.15625 C 107.527344 109.5 107.253906 109.835938 107.042969 110.15625 Z M 107.398438 104.308594 C 108.585938 103.503906 109.828125 102.863281 111.125 102.386719 C 112.425781 101.90625 113.78125 101.667969 115.191406 101.667969 C 116.515625 101.667969 117.660156 101.9375 118.632812 102.480469 C 119.597656 103.019531 120.398438 103.75 121.035156 104.671875 C 121.671875 105.589844 122.136719 106.648438 122.4375 107.84375 C 122.746094 109.035156 122.898438 110.285156 122.898438 111.589844 C 122.898438 112.726562 122.785156 113.878906 122.558594 115.046875 C 122.328125 116.210938 121.996094 117.335938 121.5625 118.429688 C 121.125 119.515625 120.582031 120.539062 119.933594 121.492188 C 119.28125 122.445312 118.535156 123.277344 117.695312 123.984375 C 116.859375 124.691406 115.925781 125.25 114.894531 125.660156 C 113.863281 126.066406 112.746094 126.269531 111.550781 126.269531 C 110.492188 126.269531 109.480469 126.0625 108.515625 125.640625 C 107.542969 125.214844 106.636719 124.667969 105.792969 123.992188 C 105.792969 124.0625 105.773438 124.316406 105.742188 124.761719 C 105.707031 125.203125 105.660156 125.742188 105.601562 126.375 C 105.542969 127.007812 105.480469 127.683594 105.410156 128.410156 C 105.339844 129.128906 105.277344 129.804688 105.21875 130.4375 C 105.164062 131.070312 105.117188 131.609375 105.082031 132.050781 C 105.046875 132.492188 105.03125 132.75 105.03125 132.816406 C 105.03125 132.933594 105.03125 133.027344 105.039062 133.101562 C 105.042969 133.183594 105.046875 133.257812 105.046875 133.328125 C 105.046875 133.4375 104.996094 133.53125 104.890625 133.613281 C 104.785156 133.6875 104.550781 133.773438 104.179688 133.871094 L 98.613281 135.285156 C 98.457031 135.324219 98.253906 135.390625 98 135.484375 C 97.75 135.574219 97.503906 135.621094 97.261719 135.621094 C 97.066406 135.621094 96.890625 135.574219 96.742188 135.476562 C 96.597656 135.378906 96.523438 135.191406 96.523438 134.921875 L 99.097656 104.09375 C 99.144531 103.632812 99.199219 103.3125 99.265625 103.136719 C 99.328125 102.960938 99.488281 102.847656 99.742188 102.789062 C 101.023438 102.539062 102.34375 102.28125 103.695312 102.023438 C 105.050781 101.765625 106.375 101.429688 107.65625 101.023438 C 107.765625 101.023438 107.832031 101.039062 107.855469 101.074219 C 107.878906 101.109375 107.890625 101.160156 107.890625 101.230469 C 107.890625 101.257812 107.886719 101.300781 107.875 101.359375 C 107.867188 101.414062 107.847656 101.542969 107.8125 101.738281 C 107.777344 101.933594 107.730469 102.230469 107.664062 102.625 C 107.601562 103.027344 107.511719 103.589844 107.398438 104.308594 Z M 143.488281 106.136719 C 143.375 106.371094 143.183594 106.722656 142.917969 107.191406 C 142.652344 107.65625 142.332031 108.183594 141.964844 108.777344 C 141.601562 109.375 141.203125 110.019531 140.777344 110.710938 C 140.355469 111.394531 139.929688 112.078125 139.5 112.761719 C 139.066406 113.441406 138.652344 114.097656 138.253906 114.730469 C 137.847656 115.363281 137.492188 115.917969 137.1875 116.402344 C 136.886719 116.886719 136.644531 117.269531 136.457031 117.558594 C 136.28125 117.847656 136.191406 117.988281 136.191406 117.988281 C 136.191406 118.007812 136.246094 118.015625 136.355469 118.015625 C 136.523438 118.015625 136.800781 118 137.1875 117.964844 C 137.578125 117.929688 138.03125 117.890625 138.539062 117.84375 C 139.042969 117.800781 139.589844 117.75 140.179688 117.6875 C 140.761719 117.625 141.339844 117.574219 141.910156 117.53125 C 142.484375 117.488281 143.019531 117.445312 143.515625 117.410156 C 144.019531 117.378906 144.441406 117.359375 144.78125 117.359375 C 145.5 117.359375 145.855469 117.515625 145.855469 117.824219 C 145.855469 118.019531 145.804688 118.214844 145.699219 118.414062 C 145.597656 118.609375 145.542969 118.71875 145.542969 118.75 L 142.492188 124.417969 C 142.464844 124.417969 142.445312 124.449219 142.441406 124.511719 C 142.433594 124.574219 142.417969 124.605469 142.390625 124.605469 C 142.105469 124.886719 141.84375 125.042969 141.609375 125.070312 C 141.367188 125.101562 141.160156 125.128906 140.992188 125.15625 C 139.789062 125.167969 138.734375 125.179688 137.820312 125.191406 C 136.902344 125.210938 136.070312 125.222656 135.332031 125.226562 C 134.585938 125.234375 133.914062 125.242188 133.320312 125.253906 C 132.71875 125.257812 132.132812 125.265625 131.558594 125.269531 C 130.988281 125.277344 130.414062 125.277344 129.835938 125.277344 C 129.257812 125.277344 128.621094 125.277344 127.925781 125.277344 C 126.574219 125.277344 125.632812 125.175781 125.101562 124.96875 C 124.574219 124.753906 124.3125 124.445312 124.3125 124.035156 C 124.3125 123.753906 124.40625 123.4375 124.597656 123.085938 C 124.789062 122.738281 125.03125 122.335938 125.324219 121.886719 C 126.226562 120.613281 127.144531 119.316406 128.074219 118.007812 C 129.011719 116.691406 129.902344 115.425781 130.746094 114.21875 C 131.59375 113.019531 132.371094 111.898438 133.078125 110.863281 C 133.78125 109.835938 134.367188 108.960938 134.828125 108.242188 C 135.199219 107.65625 135.46875 107.101562 135.636719 106.585938 C 135.800781 106.074219 135.886719 105.59375 135.886719 105.144531 C 135.886719 104.585938 135.769531 104.089844 135.539062 103.652344 C 135.308594 103.214844 134.984375 102.847656 134.570312 102.546875 C 134.152344 102.242188 133.667969 102.015625 133.121094 101.859375 C 132.566406 101.710938 131.96875 101.632812 131.335938 101.632812 C 130.53125 101.632812 129.714844 101.753906 128.882812 101.996094 C 128.046875 102.242188 127.230469 102.625 126.425781 103.144531 C 126.144531 103.328125 125.917969 103.421875 125.75 103.421875 C 125.59375 103.421875 125.492188 103.355469 125.449219 103.230469 C 125.394531 103.105469 125.371094 102.984375 125.371094 102.875 C 125.371094 102.324219 125.4375 101.683594 125.578125 100.953125 C 125.722656 100.222656 125.882812 99.519531 126.054688 98.847656 C 126.234375 98.175781 126.394531 97.59375 126.53125 97.105469 C 126.675781 96.609375 126.75 96.328125 126.75 96.261719 C 126.777344 96.261719 126.96875 96.128906 127.320312 95.871094 C 127.671875 95.613281 128.222656 95.324219 128.96875 95.007812 C 129.714844 94.691406 130.683594 94.398438 131.878906 94.128906 C 133.070312 93.863281 134.527344 93.734375 136.25 93.734375 C 137.269531 93.734375 138.289062 93.941406 139.3125 94.355469 C 140.335938 94.769531 141.25 95.339844 142.058594 96.070312 C 142.867188 96.800781 143.527344 97.660156 144.035156 98.648438 C 144.542969 99.640625 144.800781 100.703125 144.800781 101.839844 C 144.800781 102.53125 144.695312 103.230469 144.488281 103.9375 C 144.273438 104.644531 143.941406 105.378906 143.488281 106.136719 Z M 143.488281 106.136719 "/>
</g>
<g clip-path="url(#clip3)" clip-rule="nonzero">
<path style=" stroke:none;fill-rule:nonzero;fill:rgb(0%,0%,0%);fill-opacity:1;" d="M 122.738281 43.300781 L 80.246094 43.300781 C 79.265625 43.300781 78.472656 44.089844 78.472656 45.0625 L 78.472656 52.113281 L 71.359375 52.113281 C 70.378906 52.113281 69.585938 52.90625 69.585938 53.878906 L 69.585938 60.929688 L 64.273438 60.929688 C 63.292969 60.929688 62.5 61.71875 62.5 62.691406 L 62.5 69.742188 L 57.183594 69.742188 C 56.203125 69.742188 55.414062 70.53125 55.414062 71.503906 L 55.414062 82.082031 C 55.414062 83.054688 56.203125 83.84375 57.183594 83.84375 L 122.738281 83.84375 C 123.71875 83.84375 124.507812 83.054688 124.507812 82.082031 L 124.507812 45.0625 C 124.507812 44.089844 123.71875 43.300781 122.738281 43.300781 Z M 82.015625 46.828125 L 112.105469 46.828125 L 112.105469 52.113281 L 82.015625 52.113281 Z M 73.128906 55.640625 L 105.019531 55.640625 L 105.019531 60.929688 L 73.128906 60.929688 Z M 66.042969 64.453125 L 97.933594 64.453125 L 97.933594 69.742188 L 66.042969 69.742188 Z M 58.957031 73.265625 L 90.847656 73.265625 L 90.847656 80.316406 L 58.957031 80.316406 Z M 120.964844 80.316406 L 94.390625 80.316406 L 94.390625 73.265625 L 99.707031 73.265625 C 100.683594 73.265625 101.476562 72.476562 101.476562 71.503906 L 101.476562 64.453125 L 106.792969 64.453125 C 107.773438 64.453125 108.5625 63.664062 108.5625 62.691406 L 108.5625 55.640625 L 113.878906 55.640625 C 114.859375 55.640625 115.652344 54.851562 115.652344 53.878906 L 115.652344 46.828125 L 120.964844 46.828125 Z M 120.964844 80.316406 "/>
</g>
</g>
</svg>
